# xmcd CD database file
#
# Track frame offsets:
#	150
#	12377
#	25947
#	56712
#	74700
#	98532
#	111960
#	126129
#	141765
#	155492
#	172202
#	193877
#	213012
#	236959
#
# Disc length: 3351 seconds
#
# Revision: 0
# Processed by: cddbd v1.5.1PL0 Copyright (c) Steve Scherf et al.
# Submitted via: CDex 1.50
#
DISCID=d10d150e
DTITLE=Louis Armstrong - Best Artist Collection
DYEAR=1900
DGENRE=Jazz
TTITLE0=St.Louis Blues
TTITLE1=Do You Know What If Means To Miss New Orleans
TTITLE2=On The Sunny Side Of The Street
TTITLE3=Ain't Misbehavin'
TTITLE4=Rockin' Chair
TTITLE5=Mahogany Hall Stomp
TTITLE6=Where The Blues Where Born In New Orleans
TTITLE7=Sugar
TTITLE8=I Gotta Right To Sing The Blues
TTITLE9=St.James Infirmary
TTITLE10=That's My Desire
TTITLE11=Black And Blue
TTITLE12=Stars Fell On Alabama
TTITLE13=Someday You'll Be Sorry
EXTD=
EXTT0=
EXTT1=
EXTT2=
EXTT3=
EXTT4=
EXTT5=
EXTT6=
EXTT7=
EXTT8=
EXTT9=
EXTT10=
EXTT11=
EXTT12=
EXTT13=
PLAYORDER=
